<mxfile host="app.diagrams.net" modified="2023-05-27T04:18:39.270Z" agent="Mozilla/5.0 (Windows NT 10.0; Win64; x64) AppleWebKit/537.36 (KHTML, like Gecko) Chrome/113.0.0.0 Safari/537.36" etag="ZpvM2xJ1ZAYFf7JRTaQG" version="21.3.4" type="device">
  <diagram name="Page-1" id="K4faHfrAU5cS0V1JQLx_">
    <mxGraphModel dx="1646" dy="470" grid="1" gridSize="10" guides="1" tooltips="1" connect="1" arrows="1" fold="1" page="1" pageScale="1" pageWidth="827" pageHeight="1169" math="0" shadow="0">
      <root>
        <mxCell id="0" />
        <mxCell id="1" parent="0" />
        <mxCell id="e-l00xfZwaeHrTsuZlsY-1" value="" style="shape=table;startSize=0;container=1;collapsible=0;childLayout=tableLayout;fontSize=11;rounded=0;" parent="1" vertex="1">
          <mxGeometry x="60" y="131" width="240" height="28" as="geometry" />
        </mxCell>
        <mxCell id="e-l00xfZwaeHrTsuZlsY-6" value="" style="shape=tableRow;horizontal=0;startSize=0;swimlaneHead=0;swimlaneBody=0;strokeColor=inherit;top=0;left=0;bottom=0;right=0;collapsible=0;dropTarget=0;fillColor=none;points=[[0,0.5],[1,0.5]];portConstraint=eastwest;fontSize=11;rounded=0;" parent="e-l00xfZwaeHrTsuZlsY-1" vertex="1">
          <mxGeometry width="240" height="28" as="geometry" />
        </mxCell>
        <mxCell id="e-l00xfZwaeHrTsuZlsY-7" value="&lt;u&gt;NIC&lt;/u&gt;" style="shape=partialRectangle;html=1;whiteSpace=wrap;connectable=0;strokeColor=inherit;overflow=hidden;fillColor=none;top=0;left=0;bottom=0;right=0;pointerEvents=1;fontSize=11;rounded=0;" parent="e-l00xfZwaeHrTsuZlsY-6" vertex="1">
          <mxGeometry width="80" height="28" as="geometry">
            <mxRectangle width="80" height="28" as="alternateBounds" />
          </mxGeometry>
        </mxCell>
        <mxCell id="e-l00xfZwaeHrTsuZlsY-8" value="First_Name" style="shape=partialRectangle;html=1;whiteSpace=wrap;connectable=0;strokeColor=inherit;overflow=hidden;fillColor=none;top=0;left=0;bottom=0;right=0;pointerEvents=1;fontSize=11;rounded=0;" parent="e-l00xfZwaeHrTsuZlsY-6" vertex="1">
          <mxGeometry x="80" width="80" height="28" as="geometry">
            <mxRectangle width="80" height="28" as="alternateBounds" />
          </mxGeometry>
        </mxCell>
        <mxCell id="e-l00xfZwaeHrTsuZlsY-9" value="Last_Name" style="shape=partialRectangle;html=1;whiteSpace=wrap;connectable=0;strokeColor=inherit;overflow=hidden;fillColor=none;top=0;left=0;bottom=0;right=0;pointerEvents=1;fontSize=11;rounded=0;" parent="e-l00xfZwaeHrTsuZlsY-6" vertex="1">
          <mxGeometry x="160" width="80" height="28" as="geometry">
            <mxRectangle width="80" height="28" as="alternateBounds" />
          </mxGeometry>
        </mxCell>
        <mxCell id="e-l00xfZwaeHrTsuZlsY-18" value="" style="shape=table;startSize=0;container=1;collapsible=0;childLayout=tableLayout;fontSize=11;rounded=0;" parent="1" vertex="1">
          <mxGeometry x="300" y="131" width="240" height="28" as="geometry" />
        </mxCell>
        <mxCell id="e-l00xfZwaeHrTsuZlsY-19" value="" style="shape=tableRow;horizontal=0;startSize=0;swimlaneHead=0;swimlaneBody=0;strokeColor=inherit;top=0;left=0;bottom=0;right=0;collapsible=0;dropTarget=0;fillColor=none;points=[[0,0.5],[1,0.5]];portConstraint=eastwest;fontSize=11;rounded=0;" parent="e-l00xfZwaeHrTsuZlsY-18" vertex="1">
          <mxGeometry width="240" height="28" as="geometry" />
        </mxCell>
        <mxCell id="e-l00xfZwaeHrTsuZlsY-20" value="Email" style="shape=partialRectangle;html=1;whiteSpace=wrap;connectable=0;strokeColor=inherit;overflow=hidden;fillColor=none;top=0;left=0;bottom=0;right=0;pointerEvents=1;fontSize=11;rounded=0;" parent="e-l00xfZwaeHrTsuZlsY-19" vertex="1">
          <mxGeometry width="80" height="28" as="geometry">
            <mxRectangle width="80" height="28" as="alternateBounds" />
          </mxGeometry>
        </mxCell>
        <mxCell id="e-l00xfZwaeHrTsuZlsY-21" value="Password" style="shape=partialRectangle;html=1;whiteSpace=wrap;connectable=0;strokeColor=inherit;overflow=hidden;fillColor=none;top=0;left=0;bottom=0;right=0;pointerEvents=1;fontSize=11;rounded=0;" parent="e-l00xfZwaeHrTsuZlsY-19" vertex="1">
          <mxGeometry x="80" width="80" height="28" as="geometry">
            <mxRectangle width="80" height="28" as="alternateBounds" />
          </mxGeometry>
        </mxCell>
        <mxCell id="e-l00xfZwaeHrTsuZlsY-22" value="Mobile_No" style="shape=partialRectangle;html=1;whiteSpace=wrap;connectable=0;strokeColor=inherit;overflow=hidden;fillColor=none;top=0;left=0;bottom=0;right=0;pointerEvents=1;fontSize=11;rounded=0;" parent="e-l00xfZwaeHrTsuZlsY-19" vertex="1">
          <mxGeometry x="160" width="80" height="28" as="geometry">
            <mxRectangle width="80" height="28" as="alternateBounds" />
          </mxGeometry>
        </mxCell>
        <mxCell id="e-l00xfZwaeHrTsuZlsY-28" value="" style="shape=table;startSize=0;container=1;collapsible=0;childLayout=tableLayout;fontSize=11;rounded=0;" parent="1" vertex="1">
          <mxGeometry x="60" y="210" width="240" height="28" as="geometry" />
        </mxCell>
        <mxCell id="e-l00xfZwaeHrTsuZlsY-29" value="" style="shape=tableRow;horizontal=0;startSize=0;swimlaneHead=0;swimlaneBody=0;strokeColor=inherit;top=0;left=0;bottom=0;right=0;collapsible=0;dropTarget=0;fillColor=none;points=[[0,0.5],[1,0.5]];portConstraint=eastwest;fontSize=11;rounded=0;" parent="e-l00xfZwaeHrTsuZlsY-28" vertex="1">
          <mxGeometry width="240" height="28" as="geometry" />
        </mxCell>
        <mxCell id="e-l00xfZwaeHrTsuZlsY-30" value="&lt;u&gt;Reg_No&lt;/u&gt;" style="shape=partialRectangle;html=1;whiteSpace=wrap;connectable=0;strokeColor=inherit;overflow=hidden;fillColor=none;top=0;left=0;bottom=0;right=0;pointerEvents=1;fontSize=11;rounded=0;" parent="e-l00xfZwaeHrTsuZlsY-29" vertex="1">
          <mxGeometry width="80" height="28" as="geometry">
            <mxRectangle width="80" height="28" as="alternateBounds" />
          </mxGeometry>
        </mxCell>
        <mxCell id="e-l00xfZwaeHrTsuZlsY-31" value="First_Name" style="shape=partialRectangle;html=1;whiteSpace=wrap;connectable=0;strokeColor=inherit;overflow=hidden;fillColor=none;top=0;left=0;bottom=0;right=0;pointerEvents=1;fontSize=11;rounded=0;" parent="e-l00xfZwaeHrTsuZlsY-29" vertex="1">
          <mxGeometry x="80" width="80" height="28" as="geometry">
            <mxRectangle width="80" height="28" as="alternateBounds" />
          </mxGeometry>
        </mxCell>
        <mxCell id="e-l00xfZwaeHrTsuZlsY-32" value="Last_Name" style="shape=partialRectangle;html=1;whiteSpace=wrap;connectable=0;strokeColor=inherit;overflow=hidden;fillColor=none;top=0;left=0;bottom=0;right=0;pointerEvents=1;fontSize=11;rounded=0;" parent="e-l00xfZwaeHrTsuZlsY-29" vertex="1">
          <mxGeometry x="160" width="80" height="28" as="geometry">
            <mxRectangle width="80" height="28" as="alternateBounds" />
          </mxGeometry>
        </mxCell>
        <mxCell id="e-l00xfZwaeHrTsuZlsY-33" value="" style="shape=table;startSize=0;container=1;collapsible=0;childLayout=tableLayout;fontSize=11;rounded=0;" parent="1" vertex="1">
          <mxGeometry x="300" y="210" width="240" height="28" as="geometry" />
        </mxCell>
        <mxCell id="e-l00xfZwaeHrTsuZlsY-34" value="" style="shape=tableRow;horizontal=0;startSize=0;swimlaneHead=0;swimlaneBody=0;strokeColor=inherit;top=0;left=0;bottom=0;right=0;collapsible=0;dropTarget=0;fillColor=none;points=[[0,0.5],[1,0.5]];portConstraint=eastwest;fontSize=11;rounded=0;" parent="e-l00xfZwaeHrTsuZlsY-33" vertex="1">
          <mxGeometry width="240" height="28" as="geometry" />
        </mxCell>
        <mxCell id="e-l00xfZwaeHrTsuZlsY-35" value="Email" style="shape=partialRectangle;html=1;whiteSpace=wrap;connectable=0;strokeColor=inherit;overflow=hidden;fillColor=none;top=0;left=0;bottom=0;right=0;pointerEvents=1;fontSize=11;rounded=0;" parent="e-l00xfZwaeHrTsuZlsY-34" vertex="1">
          <mxGeometry width="80" height="28" as="geometry">
            <mxRectangle width="80" height="28" as="alternateBounds" />
          </mxGeometry>
        </mxCell>
        <mxCell id="e-l00xfZwaeHrTsuZlsY-36" value="Password" style="shape=partialRectangle;html=1;whiteSpace=wrap;connectable=0;strokeColor=inherit;overflow=hidden;fillColor=none;top=0;left=0;bottom=0;right=0;pointerEvents=1;fontSize=11;rounded=0;" parent="e-l00xfZwaeHrTsuZlsY-34" vertex="1">
          <mxGeometry x="80" width="80" height="28" as="geometry">
            <mxRectangle width="80" height="28" as="alternateBounds" />
          </mxGeometry>
        </mxCell>
        <mxCell id="e-l00xfZwaeHrTsuZlsY-37" value="Mobile_No" style="shape=partialRectangle;html=1;whiteSpace=wrap;connectable=0;strokeColor=inherit;overflow=hidden;fillColor=none;top=0;left=0;bottom=0;right=0;pointerEvents=1;fontSize=11;rounded=0;" parent="e-l00xfZwaeHrTsuZlsY-34" vertex="1">
          <mxGeometry x="160" width="80" height="28" as="geometry">
            <mxRectangle width="80" height="28" as="alternateBounds" />
          </mxGeometry>
        </mxCell>
        <mxCell id="e-l00xfZwaeHrTsuZlsY-43" value="" style="shape=table;startSize=0;container=1;collapsible=0;childLayout=tableLayout;fontSize=11;rounded=0;" parent="1" vertex="1">
          <mxGeometry x="540" y="210" width="80" height="28" as="geometry" />
        </mxCell>
        <mxCell id="e-l00xfZwaeHrTsuZlsY-44" value="" style="shape=tableRow;horizontal=0;startSize=0;swimlaneHead=0;swimlaneBody=0;strokeColor=inherit;top=0;left=0;bottom=0;right=0;collapsible=0;dropTarget=0;fillColor=none;points=[[0,0.5],[1,0.5]];portConstraint=eastwest;fontSize=11;rounded=0;" parent="e-l00xfZwaeHrTsuZlsY-43" vertex="1">
          <mxGeometry width="80" height="28" as="geometry" />
        </mxCell>
        <mxCell id="e-l00xfZwaeHrTsuZlsY-45" value="&lt;span style=&quot;border-color: var(--border-color);&quot;&gt;NIC&lt;/span&gt;" style="shape=partialRectangle;html=1;whiteSpace=wrap;connectable=0;strokeColor=inherit;overflow=hidden;fillColor=none;top=0;left=0;bottom=0;right=0;pointerEvents=1;fontSize=11;rounded=0;" parent="e-l00xfZwaeHrTsuZlsY-44" vertex="1">
          <mxGeometry width="80" height="28" as="geometry">
            <mxRectangle width="80" height="28" as="alternateBounds" />
          </mxGeometry>
        </mxCell>
        <mxCell id="e-l00xfZwaeHrTsuZlsY-48" value="" style="shape=table;startSize=0;container=1;collapsible=0;childLayout=tableLayout;fontSize=11;rounded=0;" parent="1" vertex="1">
          <mxGeometry x="60" y="292" width="240" height="28" as="geometry" />
        </mxCell>
        <mxCell id="e-l00xfZwaeHrTsuZlsY-49" value="" style="shape=tableRow;horizontal=0;startSize=0;swimlaneHead=0;swimlaneBody=0;strokeColor=inherit;top=0;left=0;bottom=0;right=0;collapsible=0;dropTarget=0;fillColor=none;points=[[0,0.5],[1,0.5]];portConstraint=eastwest;fontSize=11;rounded=0;" parent="e-l00xfZwaeHrTsuZlsY-48" vertex="1">
          <mxGeometry width="240" height="28" as="geometry" />
        </mxCell>
        <mxCell id="e-l00xfZwaeHrTsuZlsY-50" value="&lt;u&gt;T_No&lt;/u&gt;" style="shape=partialRectangle;html=1;whiteSpace=wrap;connectable=0;strokeColor=inherit;overflow=hidden;fillColor=none;top=0;left=0;bottom=0;right=0;pointerEvents=1;fontSize=11;rounded=0;" parent="e-l00xfZwaeHrTsuZlsY-49" vertex="1">
          <mxGeometry width="80" height="28" as="geometry">
            <mxRectangle width="80" height="28" as="alternateBounds" />
          </mxGeometry>
        </mxCell>
        <mxCell id="e-l00xfZwaeHrTsuZlsY-51" value="&lt;span style=&quot;border-color: var(--border-color);&quot;&gt;Reg_No&lt;/span&gt;" style="shape=partialRectangle;html=1;whiteSpace=wrap;connectable=0;strokeColor=inherit;overflow=hidden;fillColor=none;top=0;left=0;bottom=0;right=0;pointerEvents=1;fontSize=11;rounded=0;" parent="e-l00xfZwaeHrTsuZlsY-49" vertex="1">
          <mxGeometry x="80" width="80" height="28" as="geometry">
            <mxRectangle width="80" height="28" as="alternateBounds" />
          </mxGeometry>
        </mxCell>
        <mxCell id="e-l00xfZwaeHrTsuZlsY-52" value="C_ID" style="shape=partialRectangle;html=1;whiteSpace=wrap;connectable=0;strokeColor=inherit;overflow=hidden;fillColor=none;top=0;left=0;bottom=0;right=0;pointerEvents=1;fontSize=11;rounded=0;" parent="e-l00xfZwaeHrTsuZlsY-49" vertex="1">
          <mxGeometry x="160" width="80" height="28" as="geometry">
            <mxRectangle width="80" height="28" as="alternateBounds" />
          </mxGeometry>
        </mxCell>
        <mxCell id="e-l00xfZwaeHrTsuZlsY-63" value="" style="shape=table;startSize=0;container=1;collapsible=0;childLayout=tableLayout;fontSize=11;rounded=0;" parent="1" vertex="1">
          <mxGeometry x="60" y="370" width="160" height="28" as="geometry" />
        </mxCell>
        <mxCell id="e-l00xfZwaeHrTsuZlsY-64" value="" style="shape=tableRow;horizontal=0;startSize=0;swimlaneHead=0;swimlaneBody=0;strokeColor=inherit;top=0;left=0;bottom=0;right=0;collapsible=0;dropTarget=0;fillColor=none;points=[[0,0.5],[1,0.5]];portConstraint=eastwest;fontSize=11;rounded=0;" parent="e-l00xfZwaeHrTsuZlsY-63" vertex="1">
          <mxGeometry width="160" height="28" as="geometry" />
        </mxCell>
        <mxCell id="e-l00xfZwaeHrTsuZlsY-65" value="&lt;u&gt;L_No&lt;/u&gt;" style="shape=partialRectangle;html=1;whiteSpace=wrap;connectable=0;strokeColor=inherit;overflow=hidden;fillColor=none;top=0;left=0;bottom=0;right=0;pointerEvents=1;fontSize=11;rounded=0;" parent="e-l00xfZwaeHrTsuZlsY-64" vertex="1">
          <mxGeometry width="80" height="28" as="geometry">
            <mxRectangle width="80" height="28" as="alternateBounds" />
          </mxGeometry>
        </mxCell>
        <mxCell id="e-l00xfZwaeHrTsuZlsY-66" value="Reg_No" style="shape=partialRectangle;html=1;whiteSpace=wrap;connectable=0;strokeColor=inherit;overflow=hidden;fillColor=none;top=0;left=0;bottom=0;right=0;pointerEvents=1;fontSize=11;rounded=0;" parent="e-l00xfZwaeHrTsuZlsY-64" vertex="1">
          <mxGeometry x="80" width="80" height="28" as="geometry">
            <mxRectangle width="80" height="28" as="alternateBounds" />
          </mxGeometry>
        </mxCell>
        <mxCell id="e-l00xfZwaeHrTsuZlsY-78" value="" style="shape=table;startSize=0;container=1;collapsible=0;childLayout=tableLayout;fontSize=11;rounded=0;" parent="1" vertex="1">
          <mxGeometry x="60" y="451" width="240" height="28" as="geometry" />
        </mxCell>
        <mxCell id="e-l00xfZwaeHrTsuZlsY-79" value="" style="shape=tableRow;horizontal=0;startSize=0;swimlaneHead=0;swimlaneBody=0;strokeColor=inherit;top=0;left=0;bottom=0;right=0;collapsible=0;dropTarget=0;fillColor=none;points=[[0,0.5],[1,0.5]];portConstraint=eastwest;fontSize=11;rounded=0;" parent="e-l00xfZwaeHrTsuZlsY-78" vertex="1">
          <mxGeometry width="240" height="28" as="geometry" />
        </mxCell>
        <mxCell id="e-l00xfZwaeHrTsuZlsY-80" value="&lt;u&gt;C_ID&lt;/u&gt;" style="shape=partialRectangle;html=1;whiteSpace=wrap;connectable=0;strokeColor=inherit;overflow=hidden;fillColor=none;top=0;left=0;bottom=0;right=0;pointerEvents=1;fontSize=11;rounded=0;" parent="e-l00xfZwaeHrTsuZlsY-79" vertex="1">
          <mxGeometry width="80" height="28" as="geometry">
            <mxRectangle width="80" height="28" as="alternateBounds" />
          </mxGeometry>
        </mxCell>
        <mxCell id="e-l00xfZwaeHrTsuZlsY-81" value="Name" style="shape=partialRectangle;html=1;whiteSpace=wrap;connectable=0;strokeColor=inherit;overflow=hidden;fillColor=none;top=0;left=0;bottom=0;right=0;pointerEvents=1;fontSize=11;rounded=0;" parent="e-l00xfZwaeHrTsuZlsY-79" vertex="1">
          <mxGeometry x="80" width="80" height="28" as="geometry">
            <mxRectangle width="80" height="28" as="alternateBounds" />
          </mxGeometry>
        </mxCell>
        <mxCell id="e-l00xfZwaeHrTsuZlsY-82" value="Duration" style="shape=partialRectangle;html=1;whiteSpace=wrap;connectable=0;strokeColor=inherit;overflow=hidden;fillColor=none;top=0;left=0;bottom=0;right=0;pointerEvents=1;fontSize=11;rounded=0;" parent="e-l00xfZwaeHrTsuZlsY-79" vertex="1">
          <mxGeometry x="160" width="80" height="28" as="geometry">
            <mxRectangle width="80" height="28" as="alternateBounds" />
          </mxGeometry>
        </mxCell>
        <mxCell id="e-l00xfZwaeHrTsuZlsY-93" value="" style="shape=table;startSize=0;container=1;collapsible=0;childLayout=tableLayout;fontSize=11;rounded=0;" parent="1" vertex="1">
          <mxGeometry x="60" y="531" width="320" height="28" as="geometry" />
        </mxCell>
        <mxCell id="e-l00xfZwaeHrTsuZlsY-94" value="" style="shape=tableRow;horizontal=0;startSize=0;swimlaneHead=0;swimlaneBody=0;strokeColor=inherit;top=0;left=0;bottom=0;right=0;collapsible=0;dropTarget=0;fillColor=none;points=[[0,0.5],[1,0.5]];portConstraint=eastwest;fontSize=11;rounded=0;" parent="e-l00xfZwaeHrTsuZlsY-93" vertex="1">
          <mxGeometry width="320" height="28" as="geometry" />
        </mxCell>
        <mxCell id="e-l00xfZwaeHrTsuZlsY-95" value="&lt;u&gt;M_ID&lt;/u&gt;" style="shape=partialRectangle;html=1;whiteSpace=wrap;connectable=0;strokeColor=inherit;overflow=hidden;fillColor=none;top=0;left=0;bottom=0;right=0;pointerEvents=1;fontSize=11;rounded=0;" parent="e-l00xfZwaeHrTsuZlsY-94" vertex="1">
          <mxGeometry width="80" height="28" as="geometry">
            <mxRectangle width="80" height="28" as="alternateBounds" />
          </mxGeometry>
        </mxCell>
        <mxCell id="e-l00xfZwaeHrTsuZlsY-96" value="Name" style="shape=partialRectangle;html=1;whiteSpace=wrap;connectable=0;strokeColor=inherit;overflow=hidden;fillColor=none;top=0;left=0;bottom=0;right=0;pointerEvents=1;fontSize=11;rounded=0;" parent="e-l00xfZwaeHrTsuZlsY-94" vertex="1">
          <mxGeometry x="80" width="80" height="28" as="geometry">
            <mxRectangle width="80" height="28" as="alternateBounds" />
          </mxGeometry>
        </mxCell>
        <mxCell id="e-l00xfZwaeHrTsuZlsY-97" value="Credit" style="shape=partialRectangle;html=1;whiteSpace=wrap;connectable=0;strokeColor=inherit;overflow=hidden;fillColor=none;top=0;left=0;bottom=0;right=0;pointerEvents=1;fontSize=11;rounded=0;" parent="e-l00xfZwaeHrTsuZlsY-94" vertex="1">
          <mxGeometry x="160" width="80" height="28" as="geometry">
            <mxRectangle width="80" height="28" as="alternateBounds" />
          </mxGeometry>
        </mxCell>
        <mxCell id="ml4gBu4D1Q2vi5UmjZMw-138" value="C_ID" style="shape=partialRectangle;html=1;whiteSpace=wrap;connectable=0;strokeColor=inherit;overflow=hidden;fillColor=none;top=0;left=0;bottom=0;right=0;pointerEvents=1;fontSize=11;rounded=0;" parent="e-l00xfZwaeHrTsuZlsY-94" vertex="1">
          <mxGeometry x="240" width="80" height="28" as="geometry">
            <mxRectangle width="80" height="28" as="alternateBounds" />
          </mxGeometry>
        </mxCell>
        <mxCell id="e-l00xfZwaeHrTsuZlsY-108" value="" style="shape=table;startSize=0;container=1;collapsible=0;childLayout=tableLayout;fontSize=11;rounded=0;" parent="1" vertex="1">
          <mxGeometry x="60" y="611" width="160" height="28" as="geometry" />
        </mxCell>
        <mxCell id="e-l00xfZwaeHrTsuZlsY-109" value="" style="shape=tableRow;horizontal=0;startSize=0;swimlaneHead=0;swimlaneBody=0;strokeColor=inherit;top=0;left=0;bottom=0;right=0;collapsible=0;dropTarget=0;fillColor=none;points=[[0,0.5],[1,0.5]];portConstraint=eastwest;fontSize=11;rounded=0;" parent="e-l00xfZwaeHrTsuZlsY-108" vertex="1">
          <mxGeometry width="160" height="28" as="geometry" />
        </mxCell>
        <mxCell id="e-l00xfZwaeHrTsuZlsY-110" value="&lt;u style=&quot;border-color: var(--border-color);&quot;&gt;L_No&lt;/u&gt;" style="shape=partialRectangle;html=1;whiteSpace=wrap;connectable=0;strokeColor=inherit;overflow=hidden;fillColor=none;top=0;left=0;bottom=0;right=0;pointerEvents=1;fontSize=11;rounded=0;" parent="e-l00xfZwaeHrTsuZlsY-109" vertex="1">
          <mxGeometry width="80" height="28" as="geometry">
            <mxRectangle width="80" height="28" as="alternateBounds" />
          </mxGeometry>
        </mxCell>
        <mxCell id="e-l00xfZwaeHrTsuZlsY-111" value="&lt;u style=&quot;border-color: var(--border-color);&quot;&gt;M_ID&lt;/u&gt;" style="shape=partialRectangle;html=1;whiteSpace=wrap;connectable=0;strokeColor=inherit;overflow=hidden;fillColor=none;top=0;left=0;bottom=0;right=0;pointerEvents=1;fontSize=11;rounded=0;" parent="e-l00xfZwaeHrTsuZlsY-109" vertex="1">
          <mxGeometry x="80" width="80" height="28" as="geometry">
            <mxRectangle width="80" height="28" as="alternateBounds" />
          </mxGeometry>
        </mxCell>
        <mxCell id="e-l00xfZwaeHrTsuZlsY-123" value="" style="shape=table;startSize=0;container=1;collapsible=0;childLayout=tableLayout;fontSize=11;rounded=0;" parent="1" vertex="1">
          <mxGeometry x="60" y="692" width="240" height="28.999999999999996" as="geometry" />
        </mxCell>
        <mxCell id="e-l00xfZwaeHrTsuZlsY-124" value="" style="shape=tableRow;horizontal=0;startSize=0;swimlaneHead=0;swimlaneBody=0;strokeColor=inherit;top=0;left=0;bottom=0;right=0;collapsible=0;dropTarget=0;fillColor=none;points=[[0,0.5],[1,0.5]];portConstraint=eastwest;fontSize=11;rounded=0;" parent="e-l00xfZwaeHrTsuZlsY-123" vertex="1">
          <mxGeometry width="240" height="29" as="geometry" />
        </mxCell>
        <mxCell id="e-l00xfZwaeHrTsuZlsY-125" value="&lt;u&gt;Lec_No&lt;/u&gt;" style="shape=partialRectangle;html=1;whiteSpace=wrap;connectable=0;strokeColor=inherit;overflow=hidden;fillColor=none;top=0;left=0;bottom=0;right=0;pointerEvents=1;fontSize=11;rounded=0;" parent="e-l00xfZwaeHrTsuZlsY-124" vertex="1">
          <mxGeometry width="80" height="29" as="geometry">
            <mxRectangle width="80" height="29" as="alternateBounds" />
          </mxGeometry>
        </mxCell>
        <mxCell id="e-l00xfZwaeHrTsuZlsY-126" value="Name" style="shape=partialRectangle;html=1;whiteSpace=wrap;connectable=0;strokeColor=inherit;overflow=hidden;fillColor=none;top=0;left=0;bottom=0;right=0;pointerEvents=1;fontSize=11;rounded=0;" parent="e-l00xfZwaeHrTsuZlsY-124" vertex="1">
          <mxGeometry x="80" width="80" height="29" as="geometry">
            <mxRectangle width="80" height="29" as="alternateBounds" />
          </mxGeometry>
        </mxCell>
        <mxCell id="e-l00xfZwaeHrTsuZlsY-127" value="Duration" style="shape=partialRectangle;html=1;whiteSpace=wrap;connectable=0;strokeColor=inherit;overflow=hidden;fillColor=none;top=0;left=0;bottom=0;right=0;pointerEvents=1;fontSize=11;rounded=0;" parent="e-l00xfZwaeHrTsuZlsY-124" vertex="1">
          <mxGeometry x="160" width="80" height="29" as="geometry">
            <mxRectangle width="80" height="29" as="alternateBounds" />
          </mxGeometry>
        </mxCell>
        <mxCell id="e-l00xfZwaeHrTsuZlsY-128" value="" style="shape=table;startSize=0;container=1;collapsible=0;childLayout=tableLayout;fontSize=11;rounded=0;" parent="1" vertex="1">
          <mxGeometry x="300" y="692" width="240" height="28.999999999999996" as="geometry" />
        </mxCell>
        <mxCell id="e-l00xfZwaeHrTsuZlsY-129" value="" style="shape=tableRow;horizontal=0;startSize=0;swimlaneHead=0;swimlaneBody=0;strokeColor=inherit;top=0;left=0;bottom=0;right=0;collapsible=0;dropTarget=0;fillColor=none;points=[[0,0.5],[1,0.5]];portConstraint=eastwest;fontSize=11;rounded=0;" parent="e-l00xfZwaeHrTsuZlsY-128" vertex="1">
          <mxGeometry width="240" height="29" as="geometry" />
        </mxCell>
        <mxCell id="e-l00xfZwaeHrTsuZlsY-130" value="Type" style="shape=partialRectangle;html=1;whiteSpace=wrap;connectable=0;strokeColor=inherit;overflow=hidden;fillColor=none;top=0;left=0;bottom=0;right=0;pointerEvents=1;fontSize=11;rounded=0;" parent="e-l00xfZwaeHrTsuZlsY-129" vertex="1">
          <mxGeometry width="80" height="29" as="geometry">
            <mxRectangle width="80" height="29" as="alternateBounds" />
          </mxGeometry>
        </mxCell>
        <mxCell id="e-l00xfZwaeHrTsuZlsY-131" value="M_ID" style="shape=partialRectangle;html=1;whiteSpace=wrap;connectable=0;strokeColor=inherit;overflow=hidden;fillColor=none;top=0;left=0;bottom=0;right=0;pointerEvents=1;fontSize=11;rounded=0;" parent="e-l00xfZwaeHrTsuZlsY-129" vertex="1">
          <mxGeometry x="80" width="80" height="29" as="geometry">
            <mxRectangle width="80" height="29" as="alternateBounds" />
          </mxGeometry>
        </mxCell>
        <mxCell id="e-l00xfZwaeHrTsuZlsY-132" value="L_No" style="shape=partialRectangle;html=1;whiteSpace=wrap;connectable=0;strokeColor=inherit;overflow=hidden;fillColor=none;top=0;left=0;bottom=0;right=0;pointerEvents=1;fontSize=11;rounded=0;" parent="e-l00xfZwaeHrTsuZlsY-129" vertex="1">
          <mxGeometry x="160" width="80" height="29" as="geometry">
            <mxRectangle width="80" height="29" as="alternateBounds" />
          </mxGeometry>
        </mxCell>
        <mxCell id="e-l00xfZwaeHrTsuZlsY-141" value="&lt;b&gt;&lt;font style=&quot;font-size: 13px;&quot;&gt;Unregistered_User&lt;/font&gt;&lt;/b&gt;" style="text;html=1;strokeColor=none;fillColor=none;align=left;verticalAlign=middle;whiteSpace=wrap;rounded=0;" parent="1" vertex="1">
          <mxGeometry x="60" y="101" width="150" height="30" as="geometry" />
        </mxCell>
        <mxCell id="e-l00xfZwaeHrTsuZlsY-142" value="&lt;b&gt;&lt;font style=&quot;font-size: 13px;&quot;&gt;Registered_User&lt;/font&gt;&lt;/b&gt;" style="text;html=1;strokeColor=none;fillColor=none;align=left;verticalAlign=middle;whiteSpace=wrap;rounded=0;" parent="1" vertex="1">
          <mxGeometry x="60" y="180" width="150" height="30" as="geometry" />
        </mxCell>
        <mxCell id="ml4gBu4D1Q2vi5UmjZMw-1" value="&lt;b&gt;&lt;font style=&quot;font-size: 13px;&quot;&gt;Trainee_Teacher&lt;/font&gt;&lt;/b&gt;" style="text;html=1;strokeColor=none;fillColor=none;align=left;verticalAlign=middle;whiteSpace=wrap;rounded=0;" parent="1" vertex="1">
          <mxGeometry x="60" y="262" width="150" height="30" as="geometry" />
        </mxCell>
        <mxCell id="ml4gBu4D1Q2vi5UmjZMw-2" value="&lt;b&gt;&lt;font style=&quot;font-size: 13px;&quot;&gt;Lecturer&lt;/font&gt;&lt;/b&gt;" style="text;html=1;strokeColor=none;fillColor=none;align=left;verticalAlign=middle;whiteSpace=wrap;rounded=0;" parent="1" vertex="1">
          <mxGeometry x="60" y="340" width="80" height="30" as="geometry" />
        </mxCell>
        <mxCell id="ml4gBu4D1Q2vi5UmjZMw-3" value="" style="endArrow=classic;html=1;rounded=0;edgeStyle=orthogonalEdgeStyle;" parent="1" edge="1">
          <mxGeometry width="50" height="50" relative="1" as="geometry">
            <mxPoint x="580" y="208" as="sourcePoint" />
            <mxPoint x="96" y="160" as="targetPoint" />
            <Array as="points">
              <mxPoint x="580" y="180" />
              <mxPoint x="96" y="180" />
            </Array>
          </mxGeometry>
        </mxCell>
        <mxCell id="ml4gBu4D1Q2vi5UmjZMw-7" value="" style="endArrow=classic;html=1;rounded=0;exitX=0.843;exitY=0.993;exitDx=0;exitDy=0;exitPerimeter=0;entryX=0.15;entryY=1.083;entryDx=0;entryDy=0;entryPerimeter=0;edgeStyle=orthogonalEdgeStyle;" parent="1" source="ml4gBu4D1Q2vi5UmjZMw-1" edge="1">
          <mxGeometry width="50" height="50" relative="1" as="geometry">
            <mxPoint x="584" y="285" as="sourcePoint" />
            <mxPoint x="100" y="238" as="targetPoint" />
            <Array as="points">
              <mxPoint x="187" y="257" />
              <mxPoint x="100" y="257" />
            </Array>
          </mxGeometry>
        </mxCell>
        <mxCell id="ml4gBu4D1Q2vi5UmjZMw-10" value="" style="endArrow=classic;html=1;rounded=0;exitX=0.843;exitY=0.993;exitDx=0;exitDy=0;exitPerimeter=0;edgeStyle=orthogonalEdgeStyle;entryX=0;entryY=0.5;entryDx=0;entryDy=0;jumpStyle=arc;" parent="1" target="e-l00xfZwaeHrTsuZlsY-29" edge="1">
          <mxGeometry width="50" height="50" relative="1" as="geometry">
            <mxPoint x="186" y="370" as="sourcePoint" />
            <mxPoint x="30" y="220" as="targetPoint" />
            <Array as="points">
              <mxPoint x="180" y="370" />
              <mxPoint x="180" y="350" />
              <mxPoint x="640" y="350" />
              <mxPoint x="640" y="80" />
              <mxPoint x="20" y="80" />
              <mxPoint x="20" y="224" />
            </Array>
          </mxGeometry>
        </mxCell>
        <mxCell id="ml4gBu4D1Q2vi5UmjZMw-11" value="" style="shape=table;startSize=0;container=1;collapsible=0;childLayout=tableLayout;fontSize=11;rounded=0;" parent="1" vertex="1">
          <mxGeometry x="60" y="771" width="160" height="28" as="geometry" />
        </mxCell>
        <mxCell id="ml4gBu4D1Q2vi5UmjZMw-12" value="" style="shape=tableRow;horizontal=0;startSize=0;swimlaneHead=0;swimlaneBody=0;strokeColor=inherit;top=0;left=0;bottom=0;right=0;collapsible=0;dropTarget=0;fillColor=none;points=[[0,0.5],[1,0.5]];portConstraint=eastwest;fontSize=11;rounded=0;" parent="ml4gBu4D1Q2vi5UmjZMw-11" vertex="1">
          <mxGeometry width="160" height="28" as="geometry" />
        </mxCell>
        <mxCell id="ml4gBu4D1Q2vi5UmjZMw-13" value="&lt;u style=&quot;border-color: var(--border-color);&quot;&gt;Lec_No&lt;/u&gt;" style="shape=partialRectangle;html=1;whiteSpace=wrap;connectable=0;strokeColor=inherit;overflow=hidden;fillColor=none;top=0;left=0;bottom=0;right=0;pointerEvents=1;fontSize=11;rounded=0;" parent="ml4gBu4D1Q2vi5UmjZMw-12" vertex="1">
          <mxGeometry width="80" height="28" as="geometry">
            <mxRectangle width="80" height="28" as="alternateBounds" />
          </mxGeometry>
        </mxCell>
        <mxCell id="ml4gBu4D1Q2vi5UmjZMw-14" value="&lt;u style=&quot;border-color: var(--border-color);&quot;&gt;T_No&lt;/u&gt;" style="shape=partialRectangle;html=1;whiteSpace=wrap;connectable=0;strokeColor=inherit;overflow=hidden;fillColor=none;top=0;left=0;bottom=0;right=0;pointerEvents=1;fontSize=11;rounded=0;" parent="ml4gBu4D1Q2vi5UmjZMw-12" vertex="1">
          <mxGeometry x="80" width="80" height="28" as="geometry">
            <mxRectangle width="80" height="28" as="alternateBounds" />
          </mxGeometry>
        </mxCell>
        <mxCell id="ml4gBu4D1Q2vi5UmjZMw-26" value="" style="shape=table;startSize=0;container=1;collapsible=0;childLayout=tableLayout;fontSize=11;rounded=0;" parent="1" vertex="1">
          <mxGeometry x="60" y="851" width="240" height="29" as="geometry" />
        </mxCell>
        <mxCell id="ml4gBu4D1Q2vi5UmjZMw-27" value="" style="shape=tableRow;horizontal=0;startSize=0;swimlaneHead=0;swimlaneBody=0;strokeColor=inherit;top=0;left=0;bottom=0;right=0;collapsible=0;dropTarget=0;fillColor=none;points=[[0,0.5],[1,0.5]];portConstraint=eastwest;fontSize=11;rounded=0;" parent="ml4gBu4D1Q2vi5UmjZMw-26" vertex="1">
          <mxGeometry width="240" height="29" as="geometry" />
        </mxCell>
        <mxCell id="ml4gBu4D1Q2vi5UmjZMw-28" value="&lt;u&gt;Payment_ID&lt;/u&gt;" style="shape=partialRectangle;html=1;whiteSpace=wrap;connectable=0;strokeColor=inherit;overflow=hidden;fillColor=none;top=0;left=0;bottom=0;right=0;pointerEvents=1;fontSize=11;rounded=0;" parent="ml4gBu4D1Q2vi5UmjZMw-27" vertex="1">
          <mxGeometry width="80" height="29" as="geometry">
            <mxRectangle width="80" height="29" as="alternateBounds" />
          </mxGeometry>
        </mxCell>
        <mxCell id="ml4gBu4D1Q2vi5UmjZMw-29" value="Amount" style="shape=partialRectangle;html=1;whiteSpace=wrap;connectable=0;strokeColor=inherit;overflow=hidden;fillColor=none;top=0;left=0;bottom=0;right=0;pointerEvents=1;fontSize=11;rounded=0;" parent="ml4gBu4D1Q2vi5UmjZMw-27" vertex="1">
          <mxGeometry x="80" width="80" height="29" as="geometry">
            <mxRectangle width="80" height="29" as="alternateBounds" />
          </mxGeometry>
        </mxCell>
        <mxCell id="ml4gBu4D1Q2vi5UmjZMw-30" value="Receipt_No" style="shape=partialRectangle;html=1;whiteSpace=wrap;connectable=0;strokeColor=inherit;overflow=hidden;fillColor=none;top=0;left=0;bottom=0;right=0;pointerEvents=1;fontSize=11;rounded=0;" parent="ml4gBu4D1Q2vi5UmjZMw-27" vertex="1">
          <mxGeometry x="160" width="80" height="29" as="geometry">
            <mxRectangle width="80" height="29" as="alternateBounds" />
          </mxGeometry>
        </mxCell>
        <mxCell id="ml4gBu4D1Q2vi5UmjZMw-31" value="" style="shape=table;startSize=0;container=1;collapsible=0;childLayout=tableLayout;fontSize=11;rounded=0;" parent="1" vertex="1">
          <mxGeometry x="300" y="851" width="240" height="28" as="geometry" />
        </mxCell>
        <mxCell id="ml4gBu4D1Q2vi5UmjZMw-32" value="" style="shape=tableRow;horizontal=0;startSize=0;swimlaneHead=0;swimlaneBody=0;strokeColor=inherit;top=0;left=0;bottom=0;right=0;collapsible=0;dropTarget=0;fillColor=none;points=[[0,0.5],[1,0.5]];portConstraint=eastwest;fontSize=11;rounded=0;" parent="ml4gBu4D1Q2vi5UmjZMw-31" vertex="1">
          <mxGeometry width="240" height="28" as="geometry" />
        </mxCell>
        <mxCell id="ml4gBu4D1Q2vi5UmjZMw-33" value="Description" style="shape=partialRectangle;html=1;whiteSpace=wrap;connectable=0;strokeColor=inherit;overflow=hidden;fillColor=none;top=0;left=0;bottom=0;right=0;pointerEvents=1;fontSize=11;rounded=0;" parent="ml4gBu4D1Q2vi5UmjZMw-32" vertex="1">
          <mxGeometry width="80" height="28" as="geometry">
            <mxRectangle width="80" height="28" as="alternateBounds" />
          </mxGeometry>
        </mxCell>
        <mxCell id="ml4gBu4D1Q2vi5UmjZMw-34" value="T_No" style="shape=partialRectangle;html=1;whiteSpace=wrap;connectable=0;strokeColor=inherit;overflow=hidden;fillColor=none;top=0;left=0;bottom=0;right=0;pointerEvents=1;fontSize=11;rounded=0;" parent="ml4gBu4D1Q2vi5UmjZMw-32" vertex="1">
          <mxGeometry x="80" width="80" height="28" as="geometry">
            <mxRectangle width="80" height="28" as="alternateBounds" />
          </mxGeometry>
        </mxCell>
        <mxCell id="ml4gBu4D1Q2vi5UmjZMw-35" value="L_No" style="shape=partialRectangle;html=1;whiteSpace=wrap;connectable=0;strokeColor=inherit;overflow=hidden;fillColor=none;top=0;left=0;bottom=0;right=0;pointerEvents=1;fontSize=11;rounded=0;" parent="ml4gBu4D1Q2vi5UmjZMw-32" vertex="1">
          <mxGeometry x="160" width="80" height="28" as="geometry">
            <mxRectangle width="80" height="28" as="alternateBounds" />
          </mxGeometry>
        </mxCell>
        <mxCell id="ml4gBu4D1Q2vi5UmjZMw-41" value="" style="shape=table;startSize=0;container=1;collapsible=0;childLayout=tableLayout;fontSize=11;rounded=0;" parent="1" vertex="1">
          <mxGeometry x="60" y="932" width="240" height="28" as="geometry" />
        </mxCell>
        <mxCell id="ml4gBu4D1Q2vi5UmjZMw-42" value="" style="shape=tableRow;horizontal=0;startSize=0;swimlaneHead=0;swimlaneBody=0;strokeColor=inherit;top=0;left=0;bottom=0;right=0;collapsible=0;dropTarget=0;fillColor=none;points=[[0,0.5],[1,0.5]];portConstraint=eastwest;fontSize=11;rounded=0;" parent="ml4gBu4D1Q2vi5UmjZMw-41" vertex="1">
          <mxGeometry width="240" height="28" as="geometry" />
        </mxCell>
        <mxCell id="ml4gBu4D1Q2vi5UmjZMw-43" value="&lt;u&gt;E_No&lt;/u&gt;" style="shape=partialRectangle;html=1;whiteSpace=wrap;connectable=0;strokeColor=inherit;overflow=hidden;fillColor=none;top=0;left=0;bottom=0;right=0;pointerEvents=1;fontSize=11;rounded=0;" parent="ml4gBu4D1Q2vi5UmjZMw-42" vertex="1">
          <mxGeometry width="80" height="28" as="geometry">
            <mxRectangle width="80" height="28" as="alternateBounds" />
          </mxGeometry>
        </mxCell>
        <mxCell id="ml4gBu4D1Q2vi5UmjZMw-44" value="Name" style="shape=partialRectangle;html=1;whiteSpace=wrap;connectable=0;strokeColor=inherit;overflow=hidden;fillColor=none;top=0;left=0;bottom=0;right=0;pointerEvents=1;fontSize=11;rounded=0;" parent="ml4gBu4D1Q2vi5UmjZMw-42" vertex="1">
          <mxGeometry x="80" width="80" height="28" as="geometry">
            <mxRectangle width="80" height="28" as="alternateBounds" />
          </mxGeometry>
        </mxCell>
        <mxCell id="ml4gBu4D1Q2vi5UmjZMw-45" value="Duration" style="shape=partialRectangle;html=1;whiteSpace=wrap;connectable=0;strokeColor=inherit;overflow=hidden;fillColor=none;top=0;left=0;bottom=0;right=0;pointerEvents=1;fontSize=11;rounded=0;" parent="ml4gBu4D1Q2vi5UmjZMw-42" vertex="1">
          <mxGeometry x="160" width="80" height="28" as="geometry">
            <mxRectangle width="80" height="28" as="alternateBounds" />
          </mxGeometry>
        </mxCell>
        <mxCell id="ml4gBu4D1Q2vi5UmjZMw-46" value="" style="shape=table;startSize=0;container=1;collapsible=0;childLayout=tableLayout;fontSize=11;rounded=0;" parent="1" vertex="1">
          <mxGeometry x="300" y="932" width="80" height="28" as="geometry" />
        </mxCell>
        <mxCell id="ml4gBu4D1Q2vi5UmjZMw-47" value="" style="shape=tableRow;horizontal=0;startSize=0;swimlaneHead=0;swimlaneBody=0;strokeColor=inherit;top=0;left=0;bottom=0;right=0;collapsible=0;dropTarget=0;fillColor=none;points=[[0,0.5],[1,0.5]];portConstraint=eastwest;fontSize=11;rounded=0;" parent="ml4gBu4D1Q2vi5UmjZMw-46" vertex="1">
          <mxGeometry width="80" height="28" as="geometry" />
        </mxCell>
        <mxCell id="ml4gBu4D1Q2vi5UmjZMw-48" value="M_ID" style="shape=partialRectangle;html=1;whiteSpace=wrap;connectable=0;strokeColor=inherit;overflow=hidden;fillColor=none;top=0;left=0;bottom=0;right=0;pointerEvents=1;fontSize=11;rounded=0;" parent="ml4gBu4D1Q2vi5UmjZMw-47" vertex="1">
          <mxGeometry width="80" height="28" as="geometry">
            <mxRectangle width="80" height="28" as="alternateBounds" />
          </mxGeometry>
        </mxCell>
        <mxCell id="ml4gBu4D1Q2vi5UmjZMw-56" value="" style="shape=table;startSize=0;container=1;collapsible=0;childLayout=tableLayout;fontSize=11;rounded=0;" parent="1" vertex="1">
          <mxGeometry x="60" y="1012" width="160" height="28" as="geometry" />
        </mxCell>
        <mxCell id="ml4gBu4D1Q2vi5UmjZMw-57" value="" style="shape=tableRow;horizontal=0;startSize=0;swimlaneHead=0;swimlaneBody=0;strokeColor=inherit;top=0;left=0;bottom=0;right=0;collapsible=0;dropTarget=0;fillColor=none;points=[[0,0.5],[1,0.5]];portConstraint=eastwest;fontSize=11;rounded=0;" parent="ml4gBu4D1Q2vi5UmjZMw-56" vertex="1">
          <mxGeometry width="160" height="28" as="geometry" />
        </mxCell>
        <mxCell id="ml4gBu4D1Q2vi5UmjZMw-58" value="&lt;u&gt;E_No&lt;/u&gt;" style="shape=partialRectangle;html=1;whiteSpace=wrap;connectable=0;strokeColor=inherit;overflow=hidden;fillColor=none;top=0;left=0;bottom=0;right=0;pointerEvents=1;fontSize=11;rounded=0;" parent="ml4gBu4D1Q2vi5UmjZMw-57" vertex="1">
          <mxGeometry width="80" height="28" as="geometry">
            <mxRectangle width="80" height="28" as="alternateBounds" />
          </mxGeometry>
        </mxCell>
        <mxCell id="ml4gBu4D1Q2vi5UmjZMw-59" value="&lt;u&gt;T_No&lt;/u&gt;" style="shape=partialRectangle;html=1;whiteSpace=wrap;connectable=0;strokeColor=inherit;overflow=hidden;fillColor=none;top=0;left=0;bottom=0;right=0;pointerEvents=1;fontSize=11;rounded=0;" parent="ml4gBu4D1Q2vi5UmjZMw-57" vertex="1">
          <mxGeometry x="80" width="80" height="28" as="geometry">
            <mxRectangle width="80" height="28" as="alternateBounds" />
          </mxGeometry>
        </mxCell>
        <mxCell id="ml4gBu4D1Q2vi5UmjZMw-71" value="" style="shape=table;startSize=0;container=1;collapsible=0;childLayout=tableLayout;fontSize=11;rounded=0;" parent="1" vertex="1">
          <mxGeometry x="70" y="1092" width="240" height="28" as="geometry" />
        </mxCell>
        <mxCell id="ml4gBu4D1Q2vi5UmjZMw-72" value="" style="shape=tableRow;horizontal=0;startSize=0;swimlaneHead=0;swimlaneBody=0;strokeColor=inherit;top=0;left=0;bottom=0;right=0;collapsible=0;dropTarget=0;fillColor=none;points=[[0,0.5],[1,0.5]];portConstraint=eastwest;fontSize=11;rounded=0;" parent="ml4gBu4D1Q2vi5UmjZMw-71" vertex="1">
          <mxGeometry width="240" height="28" as="geometry" />
        </mxCell>
        <mxCell id="ml4gBu4D1Q2vi5UmjZMw-73" value="&lt;u&gt;Certificate_No&lt;/u&gt;" style="shape=partialRectangle;html=1;whiteSpace=wrap;connectable=0;strokeColor=inherit;overflow=hidden;fillColor=none;top=0;left=0;bottom=0;right=0;pointerEvents=1;fontSize=11;rounded=0;" parent="ml4gBu4D1Q2vi5UmjZMw-72" vertex="1">
          <mxGeometry width="80" height="28" as="geometry">
            <mxRectangle width="80" height="28" as="alternateBounds" />
          </mxGeometry>
        </mxCell>
        <mxCell id="ml4gBu4D1Q2vi5UmjZMw-74" value="Description" style="shape=partialRectangle;html=1;whiteSpace=wrap;connectable=0;strokeColor=inherit;overflow=hidden;fillColor=none;top=0;left=0;bottom=0;right=0;pointerEvents=1;fontSize=11;rounded=0;" parent="ml4gBu4D1Q2vi5UmjZMw-72" vertex="1">
          <mxGeometry x="80" width="80" height="28" as="geometry">
            <mxRectangle width="80" height="28" as="alternateBounds" />
          </mxGeometry>
        </mxCell>
        <mxCell id="ml4gBu4D1Q2vi5UmjZMw-75" value="T_No" style="shape=partialRectangle;html=1;whiteSpace=wrap;connectable=0;strokeColor=inherit;overflow=hidden;fillColor=none;top=0;left=0;bottom=0;right=0;pointerEvents=1;fontSize=11;rounded=0;" parent="ml4gBu4D1Q2vi5UmjZMw-72" vertex="1">
          <mxGeometry x="160" width="80" height="28" as="geometry">
            <mxRectangle width="80" height="28" as="alternateBounds" />
          </mxGeometry>
        </mxCell>
        <mxCell id="ml4gBu4D1Q2vi5UmjZMw-86" value="&lt;b&gt;&lt;font style=&quot;font-size: 13px;&quot;&gt;Course&lt;/font&gt;&lt;/b&gt;" style="text;html=1;strokeColor=none;fillColor=none;align=left;verticalAlign=middle;whiteSpace=wrap;rounded=0;" parent="1" vertex="1">
          <mxGeometry x="60" y="421" width="80" height="30" as="geometry" />
        </mxCell>
        <mxCell id="ml4gBu4D1Q2vi5UmjZMw-87" value="&lt;b&gt;&lt;font style=&quot;font-size: 13px;&quot;&gt;Module&lt;/font&gt;&lt;/b&gt;" style="text;html=1;strokeColor=none;fillColor=none;align=left;verticalAlign=middle;whiteSpace=wrap;rounded=0;" parent="1" vertex="1">
          <mxGeometry x="60" y="501" width="80" height="30" as="geometry" />
        </mxCell>
        <mxCell id="ml4gBu4D1Q2vi5UmjZMw-88" value="&lt;b&gt;&lt;font style=&quot;font-size: 13px;&quot;&gt;Lecturer_Module&lt;/font&gt;&lt;/b&gt;" style="text;html=1;strokeColor=none;fillColor=none;align=left;verticalAlign=middle;whiteSpace=wrap;rounded=0;" parent="1" vertex="1">
          <mxGeometry x="60" y="581" width="120" height="30" as="geometry" />
        </mxCell>
        <mxCell id="ml4gBu4D1Q2vi5UmjZMw-89" value="" style="endArrow=classic;html=1;rounded=0;entryX=0.15;entryY=1.052;entryDx=0;entryDy=0;entryPerimeter=0;edgeStyle=orthogonalEdgeStyle;exitX=1;exitY=0.5;exitDx=0;exitDy=0;jumpStyle=arc;jumpSize=10;" parent="1" source="e-l00xfZwaeHrTsuZlsY-49" target="e-l00xfZwaeHrTsuZlsY-79" edge="1">
          <mxGeometry width="50" height="50" relative="1" as="geometry">
            <mxPoint x="250" y="320" as="sourcePoint" />
            <mxPoint x="810" y="367" as="targetPoint" />
            <Array as="points">
              <mxPoint x="690" y="306" />
              <mxPoint x="690" y="490" />
              <mxPoint x="96" y="490" />
            </Array>
          </mxGeometry>
        </mxCell>
        <mxCell id="ml4gBu4D1Q2vi5UmjZMw-90" value="" style="endArrow=classic;html=1;rounded=0;edgeStyle=orthogonalEdgeStyle;entryX=-0.037;entryY=1.367;entryDx=0;entryDy=0;entryPerimeter=0;exitX=0.188;exitY=0.107;exitDx=0;exitDy=0;exitPerimeter=0;" parent="1" target="ml4gBu4D1Q2vi5UmjZMw-86" edge="1">
          <mxGeometry width="50" height="50" relative="1" as="geometry">
            <mxPoint x="345.1199999999999" y="533.9960000000001" as="sourcePoint" />
            <mxPoint x="30" y="470" as="targetPoint" />
            <Array as="points">
              <mxPoint x="345" y="500" />
              <mxPoint x="40" y="500" />
              <mxPoint x="40" y="462" />
            </Array>
          </mxGeometry>
        </mxCell>
        <mxCell id="ml4gBu4D1Q2vi5UmjZMw-91" value="" style="endArrow=classic;html=1;rounded=0;exitX=0.843;exitY=0.993;exitDx=0;exitDy=0;exitPerimeter=0;edgeStyle=orthogonalEdgeStyle;" parent="1" edge="1">
          <mxGeometry width="50" height="50" relative="1" as="geometry">
            <mxPoint x="186" y="609" as="sourcePoint" />
            <mxPoint x="100" y="559" as="targetPoint" />
            <Array as="points">
              <mxPoint x="187" y="609" />
              <mxPoint x="187" y="580" />
              <mxPoint x="100" y="580" />
            </Array>
          </mxGeometry>
        </mxCell>
        <mxCell id="ml4gBu4D1Q2vi5UmjZMw-92" value="" style="endArrow=classic;html=1;rounded=0;exitX=0.146;exitY=1.011;exitDx=0;exitDy=0;exitPerimeter=0;edgeStyle=orthogonalEdgeStyle;entryX=0;entryY=0.5;entryDx=0;entryDy=0;" parent="1" source="e-l00xfZwaeHrTsuZlsY-109" target="e-l00xfZwaeHrTsuZlsY-64" edge="1">
          <mxGeometry width="50" height="50" relative="1" as="geometry">
            <mxPoint x="96" y="700" as="sourcePoint" />
            <mxPoint x="20" y="380" as="targetPoint" />
            <Array as="points">
              <mxPoint x="95" y="650" />
              <mxPoint x="30" y="650" />
              <mxPoint x="30" y="384" />
            </Array>
          </mxGeometry>
        </mxCell>
        <mxCell id="ml4gBu4D1Q2vi5UmjZMw-93" value="&lt;span style=&quot;font-size: 13px;&quot;&gt;&lt;b&gt;Lecture&lt;/b&gt;&lt;/span&gt;" style="text;html=1;strokeColor=none;fillColor=none;align=left;verticalAlign=middle;whiteSpace=wrap;rounded=0;" parent="1" vertex="1">
          <mxGeometry x="60" y="662" width="80" height="30" as="geometry" />
        </mxCell>
        <mxCell id="ml4gBu4D1Q2vi5UmjZMw-94" value="&lt;span style=&quot;font-size: 13px;&quot;&gt;&lt;b&gt;Atten_Lecture&lt;/b&gt;&lt;/span&gt;" style="text;html=1;strokeColor=none;fillColor=none;align=left;verticalAlign=middle;whiteSpace=wrap;rounded=0;" parent="1" vertex="1">
          <mxGeometry x="60" y="741" width="100" height="30" as="geometry" />
        </mxCell>
        <mxCell id="ml4gBu4D1Q2vi5UmjZMw-95" value="" style="endArrow=classic;html=1;rounded=0;exitX=0;exitY=0.5;exitDx=0;exitDy=0;edgeStyle=orthogonalEdgeStyle;entryX=-0.013;entryY=0.468;entryDx=0;entryDy=0;entryPerimeter=0;" parent="1" source="ml4gBu4D1Q2vi5UmjZMw-12" edge="1" target="e-l00xfZwaeHrTsuZlsY-124">
          <mxGeometry width="50" height="50" relative="1" as="geometry">
            <mxPoint x="96" y="770" as="sourcePoint" />
            <mxPoint x="100" y="640" as="targetPoint" />
            <Array as="points">
              <mxPoint x="60" y="784" />
              <mxPoint x="40" y="784" />
              <mxPoint x="40" y="706" />
              <mxPoint x="50" y="706" />
            </Array>
          </mxGeometry>
        </mxCell>
        <mxCell id="ml4gBu4D1Q2vi5UmjZMw-96" value="" style="endArrow=classic;html=1;rounded=0;edgeStyle=orthogonalEdgeStyle;entryX=0.152;entryY=0.98;entryDx=0;entryDy=0;entryPerimeter=0;" parent="1" target="e-l00xfZwaeHrTsuZlsY-49" edge="1">
          <mxGeometry width="50" height="50" relative="1" as="geometry">
            <mxPoint x="160" y="800" as="sourcePoint" />
            <mxPoint x="50" y="330" as="targetPoint" />
            <Array as="points">
              <mxPoint x="160" y="810" />
              <mxPoint x="20" y="810" />
              <mxPoint x="20" y="340" />
              <mxPoint x="96" y="340" />
              <mxPoint x="96" y="319" />
            </Array>
          </mxGeometry>
        </mxCell>
        <mxCell id="ml4gBu4D1Q2vi5UmjZMw-97" value="" style="endArrow=classic;html=1;rounded=0;edgeStyle=orthogonalEdgeStyle;entryX=0.154;entryY=1.036;entryDx=0;entryDy=0;entryPerimeter=0;jumpStyle=arc;jumpSize=10;" parent="1" target="e-l00xfZwaeHrTsuZlsY-64" edge="1">
          <mxGeometry width="50" height="50" relative="1" as="geometry">
            <mxPoint x="500" y="690" as="sourcePoint" />
            <mxPoint x="330" y="639" as="targetPoint" />
            <Array as="points">
              <mxPoint x="500" y="680" />
              <mxPoint x="750" y="680" />
              <mxPoint x="750" y="430" />
              <mxPoint x="85" y="430" />
            </Array>
          </mxGeometry>
        </mxCell>
        <mxCell id="ml4gBu4D1Q2vi5UmjZMw-111" value="" style="endArrow=classic;html=1;rounded=0;edgeStyle=orthogonalEdgeStyle;" parent="1" edge="1">
          <mxGeometry width="50" height="50" relative="1" as="geometry">
            <mxPoint x="410" y="690" as="sourcePoint" />
            <mxPoint x="180" y="639" as="targetPoint" />
            <Array as="points">
              <mxPoint x="410" y="689" />
              <mxPoint x="410" y="654" />
              <mxPoint x="180" y="654" />
            </Array>
          </mxGeometry>
        </mxCell>
        <mxCell id="ml4gBu4D1Q2vi5UmjZMw-112" value="&lt;span style=&quot;font-size: 13px;&quot;&gt;&lt;b&gt;Payment&lt;/b&gt;&lt;/span&gt;" style="text;html=1;strokeColor=none;fillColor=none;align=left;verticalAlign=middle;whiteSpace=wrap;rounded=0;" parent="1" vertex="1">
          <mxGeometry x="60" y="821" width="100" height="30" as="geometry" />
        </mxCell>
        <mxCell id="ml4gBu4D1Q2vi5UmjZMw-113" value="" style="endArrow=classic;html=1;rounded=0;edgeStyle=orthogonalEdgeStyle;exitX=0.495;exitY=-0.189;exitDx=0;exitDy=0;exitPerimeter=0;entryX=0;entryY=0.994;entryDx=0;entryDy=0;entryPerimeter=0;" parent="1" source="ml4gBu4D1Q2vi5UmjZMw-32" target="e-l00xfZwaeHrTsuZlsY-49" edge="1">
          <mxGeometry width="50" height="50" relative="1" as="geometry">
            <mxPoint x="176" y="799" as="sourcePoint" />
            <mxPoint x="40" y="300" as="targetPoint" />
            <Array as="points">
              <mxPoint x="419" y="820" />
              <mxPoint y="820" />
              <mxPoint y="320" />
              <mxPoint x="60" y="320" />
            </Array>
          </mxGeometry>
        </mxCell>
        <mxCell id="ml4gBu4D1Q2vi5UmjZMw-114" value="" style="endArrow=classic;html=1;rounded=0;edgeStyle=orthogonalEdgeStyle;exitX=0.831;exitY=-0.256;exitDx=0;exitDy=0;exitPerimeter=0;jumpStyle=arc;jumpSize=10;" parent="1" source="ml4gBu4D1Q2vi5UmjZMw-32" target="e-l00xfZwaeHrTsuZlsY-64" edge="1">
          <mxGeometry width="50" height="50" relative="1" as="geometry">
            <mxPoint x="500" y="690" as="sourcePoint" />
            <mxPoint x="97" y="399" as="targetPoint" />
            <Array as="points">
              <mxPoint x="499" y="830" />
              <mxPoint x="800" y="830" />
              <mxPoint x="800" y="410" />
              <mxPoint x="120" y="410" />
            </Array>
          </mxGeometry>
        </mxCell>
        <mxCell id="ml4gBu4D1Q2vi5UmjZMw-115" value="&lt;span style=&quot;font-size: 13px;&quot;&gt;&lt;b&gt;Exam&lt;/b&gt;&lt;/span&gt;" style="text;html=1;strokeColor=none;fillColor=none;align=left;verticalAlign=middle;whiteSpace=wrap;rounded=0;" parent="1" vertex="1">
          <mxGeometry x="60" y="902" width="100" height="30" as="geometry" />
        </mxCell>
        <mxCell id="ml4gBu4D1Q2vi5UmjZMw-116" value="&lt;span style=&quot;font-size: 13px;&quot;&gt;&lt;b&gt;Attept_exam&lt;/b&gt;&lt;/span&gt;" style="text;html=1;strokeColor=none;fillColor=none;align=left;verticalAlign=middle;whiteSpace=wrap;rounded=0;" parent="1" vertex="1">
          <mxGeometry x="60" y="982" width="100" height="30" as="geometry" />
        </mxCell>
        <mxCell id="ml4gBu4D1Q2vi5UmjZMw-118" value="" style="endArrow=classic;html=1;rounded=0;edgeStyle=orthogonalEdgeStyle;jumpStyle=arc;jumpSize=10;" parent="1" edge="1">
          <mxGeometry width="50" height="50" relative="1" as="geometry">
            <mxPoint x="337" y="929" as="sourcePoint" />
            <mxPoint x="123" y="559" as="targetPoint" />
            <Array as="points">
              <mxPoint x="337" y="920" />
              <mxPoint x="660" y="920" />
              <mxPoint x="660" y="570" />
              <mxPoint x="123" y="570" />
            </Array>
          </mxGeometry>
        </mxCell>
        <mxCell id="ml4gBu4D1Q2vi5UmjZMw-119" value="" style="endArrow=classic;html=1;rounded=0;edgeStyle=orthogonalEdgeStyle;exitX=0.751;exitY=1.084;exitDx=0;exitDy=0;exitPerimeter=0;" parent="1" source="ml4gBu4D1Q2vi5UmjZMw-57" edge="1">
          <mxGeometry width="50" height="50" relative="1" as="geometry">
            <mxPoint x="420" y="1000" as="sourcePoint" />
            <mxPoint x="60" y="310" as="targetPoint" />
            <Array as="points">
              <mxPoint x="180" y="1050" />
              <mxPoint x="-20" y="1050" />
              <mxPoint x="-20" y="310" />
            </Array>
          </mxGeometry>
        </mxCell>
        <mxCell id="ml4gBu4D1Q2vi5UmjZMw-122" value="" style="endArrow=classic;html=1;rounded=0;exitX=0;exitY=0.286;exitDx=0;exitDy=0;edgeStyle=orthogonalEdgeStyle;entryX=-0.023;entryY=0.542;entryDx=0;entryDy=0;entryPerimeter=0;exitPerimeter=0;" parent="1" source="ml4gBu4D1Q2vi5UmjZMw-57" target="ml4gBu4D1Q2vi5UmjZMw-42" edge="1">
          <mxGeometry width="50" height="50" relative="1" as="geometry">
            <mxPoint x="96" y="770" as="sourcePoint" />
            <mxPoint x="10" y="720" as="targetPoint" />
            <Array as="points">
              <mxPoint x="20" y="1020" />
              <mxPoint x="20" y="947" />
            </Array>
          </mxGeometry>
        </mxCell>
        <mxCell id="ml4gBu4D1Q2vi5UmjZMw-124" value="&lt;span style=&quot;font-size: 13px;&quot;&gt;&lt;b&gt;Certificate&lt;/b&gt;&lt;/span&gt;" style="text;html=1;strokeColor=none;fillColor=none;align=left;verticalAlign=middle;whiteSpace=wrap;rounded=0;" parent="1" vertex="1">
          <mxGeometry x="70" y="1060" width="100" height="30" as="geometry" />
        </mxCell>
        <mxCell id="ml4gBu4D1Q2vi5UmjZMw-125" value="" style="endArrow=classic;html=1;rounded=0;edgeStyle=orthogonalEdgeStyle;exitX=0.825;exitY=0.964;exitDx=0;exitDy=0;exitPerimeter=0;" parent="1" source="ml4gBu4D1Q2vi5UmjZMw-72" edge="1">
          <mxGeometry width="50" height="50" relative="1" as="geometry">
            <mxPoint x="290" y="1140" as="sourcePoint" />
            <mxPoint x="60" y="300" as="targetPoint" />
            <Array as="points">
              <mxPoint x="268" y="1140" />
              <mxPoint x="-40" y="1140" />
              <mxPoint x="-40" y="300" />
              <mxPoint x="60" y="300" />
            </Array>
          </mxGeometry>
        </mxCell>
      </root>
    </mxGraphModel>
  </diagram>
</mxfile>
